<!-- created by svgstack.com | Attribution is required. --><svg width="200" height="201" viewBox="0 0 200 201" fill="none" xmlns="http://www.w3.org/2000/svg"><path d="M100.228 0.371582H99.7723C44.6696 0.371582 0 45.0543 0 100.173V100.629C0 155.748 44.6696 200.43 99.7723 200.43H100.228C155.33 200.43 200 155.748 200 100.629V100.173C200 45.0543 155.33 0.371582 100.228 0.371582Z" fill="currentColor"/><path d="M92.2607 104.168C90.523 101.988 88.533 100.32 86.3048 99.1917C88.2738 97.9932 89.9695 96.5213 91.3709 94.769C93.7322 91.8112 94.9304 88.1034 94.9304 83.7438C94.9304 80.1061 93.9704 76.7628 92.0716 73.812C90.1797 70.8612 87.3629 68.4921 83.6982 66.7679C80.1107 65.0787 75.7874 64.2236 70.8615 64.2236H42.8406V136.606H72.1507C76.9505 136.606 81.2388 135.73 84.8894 134.006C88.6101 132.253 91.511 129.8 93.501 126.723C95.498 123.632 96.514 120.121 96.514 116.287C96.514 111.794 95.0846 107.722 92.2607 104.175V104.168ZM77.3779 90.9771C75.6472 92.3789 73.1177 93.0938 69.8735 93.0938H57.7514V77.0572H69.8735C73.1037 77.0572 75.6192 77.7931 77.3499 79.251C79.0106 80.6458 79.8164 82.5733 79.8164 85.1246C79.8164 87.6759 79.0176 89.6524 77.3779 90.9771ZM57.7514 105.934H70.7634C74.1687 105.934 76.7894 106.761 78.7723 108.465C80.6712 110.098 81.5961 112.264 81.5961 115.095C81.5961 117.927 80.7413 119.924 78.9755 121.417C77.1467 122.966 74.5191 123.751 71.1558 123.751H57.7514V105.934Z" fill="none"/><path d="M153.761 92.0635C151.505 87.9843 148.31 84.7671 144.26 82.5102C140.217 80.2533 135.543 79.1108 130.386 79.1108C125.229 79.1108 120.205 80.2884 116.063 82.6084C111.915 84.9354 108.65 88.2787 106.366 92.5612C104.082 96.8367 102.925 101.855 102.925 107.476C102.925 113.098 104.117 118.123 106.471 122.392C108.825 126.667 112.119 130.031 116.267 132.387C120.408 134.742 125.159 135.933 130.393 135.933C136.818 135.933 142.277 134.3 146.621 131.083C150.965 127.866 154.006 123.674 155.667 118.635L155.786 118.277H143.075L142.998 118.432C140.553 123.387 136.314 125.896 130.386 125.896C126.259 125.896 122.727 124.585 119.889 122.013C117.122 119.497 115.531 116.133 115.16 112.004H156.725L156.76 111.773C157.026 110.112 157.159 108.233 157.159 106.194C157.159 100.895 156.017 96.1428 153.761 92.0635ZM120.085 92.7925C122.79 90.3744 126.09 89.1548 129.888 89.1548C134.085 89.1548 137.652 90.3954 140.49 92.8486C143.251 95.2316 144.715 98.4348 144.841 102.36H115.279C115.839 98.3717 117.458 95.1545 120.092 92.7995L120.085 92.7925Z" fill="none"/><path d="M143.881 65.8853H116.197V72.4457H143.881V65.8853Z" fill="none"/></svg> 